<svg xmlns="http://www.w3.org/2000/svg" width="180.613" height="180.613" viewBox="0 0 180.613 180.613">
  <path id="clock-regular" d="M98.306,8a90.306,90.306,0,1,0,90.306,90.306A90.291,90.291,0,0,0,98.306,8Zm0,163.134a72.828,72.828,0,1,1,72.828-72.828A72.808,72.808,0,0,1,98.306,171.134Zm22.5-38.016L89.895,110.651a4.4,4.4,0,0,1-1.784-3.532V47.327a4.383,4.383,0,0,1,4.37-4.37h11.652a4.383,4.383,0,0,1,4.37,4.37v51.6l24.324,17.7a4.367,4.367,0,0,1,.947,6.118l-6.846,9.431a4.4,4.4,0,0,1-6.118.947Z" transform="translate(-8 -8)" fill="rgba(0,0,0,0.06)"/>
</svg>
